<mxfile host="app.diagrams.net" modified="2023-06-08T20:08:06.217Z" agent="Mozilla/5.0 (Windows NT 10.0; Win64; x64) AppleWebKit/537.36 (KHTML, like Gecko) Chrome/114.0.0.0 Safari/537.36" version="21.3.7" etag="u8HWPsLXiHsWIuVABgNG" type="github">
  <diagram name="PÃ¡gina-1" id="W8_O13e3aCcCkk0ZVJAL">
    <mxGraphModel>
      <root>
        <mxCell id="0" />
        <mxCell id="1" parent="0" />
      </root>
    </mxGraphModel>
  </diagram>
</mxfile>
